<?xml version="1.0" encoding="UTF-8" standalone="no"?>
<!DOCTYPE svg PUBLIC "-//W3C//DTD SVG 1.1//EN" "http://www.w3.org/Graphics/SVG/1.1/DTD/svg11.dtd">
<svg width="100%" height="100%" viewBox="0 0 987 987" version="1.1" xmlns="http://www.w3.org/2000/svg" xmlns:xlink="http://www.w3.org/1999/xlink" xml:space="preserve" xmlns:serif="http://www.serif.com/" style="fill-rule:evenodd;clip-rule:evenodd;stroke-linecap:round;stroke-linejoin:round;stroke-miterlimit:10;">
    <g transform="matrix(1,0,0,1,-46.6667,-46.6667)">
        <g>
            <g transform="matrix(1,0,0,1,-46.6667,-10.4762)">
                <path d="M1080,192.988L1080,907.964C1080,982.939 1019.13,1043.81 944.155,1043.81L229.179,1043.81C154.204,1043.81 93.333,982.939 93.333,907.964L93.333,192.988C93.333,118.013 154.204,57.143 229.179,57.143L944.155,57.143C1019.13,57.143 1080,118.013 1080,192.988Z" style="fill:url(#_Linear1);"/>
            </g>
            <g id="shield_24dp_E8EAED_FILL0_wght400_GRAD0_opsz24.svg" transform="matrix(36,0,0,32.7917,540,589.803)">
                <g id="Ebene1">
                    <g id="shield_24dp_E8EAED_FILL0_wght400_GRAD0_opsz24.svg1" serif:id="shield_24dp_E8EAED_FILL0_wght400_GRAD0_opsz24.svg" transform="matrix(1,0,0,1,-12,-12)">
                        <path d="M12,22C9.683,21.417 7.771,20.087 6.263,18.013C4.754,15.938 4,13.633 4,11.1L4,5L12,2L20,5L20,11.1C20,13.633 19.246,15.938 17.738,18.013C16.229,20.087 14.317,21.417 12,22ZM12,19.9C13.733,19.35 15.167,18.25 16.3,16.6C17.433,14.95 18,13.117 18,11.1L18,6.375L12,4.125L6,6.375L6,11.1C6,13.117 6.567,14.95 7.7,16.6C8.833,18.25 10.267,19.35 12,19.9Z" style="fill:white;fill-rule:nonzero;"/>
                    </g>
                    <g id="shield_24dp_E8EAED_FILL0_wght400_GRAD0_opsz24.svg2" serif:id="shield_24dp_E8EAED_FILL0_wght400_GRAD0_opsz24.svg">
                    </g>
                </g>
            </g>
            <g transform="matrix(0.84557,0,0,1,78.6814,-11.726)">
                <g id="Ebene2">
                    <path d="M348.071,365.331L348.071,283.996C348.071,242.069 388.328,208.029 437.913,208.029L653.23,208.029C702.815,208.029 743.071,242.069 743.071,283.996L743.071,366.288L545.571,306.755L348.071,365.331Z" style="fill:none;stroke:white;stroke-width:55.45px;"/>
                </g>
            </g>
        </g>
    </g>
    <defs>
        <linearGradient id="_Linear1" x1="0" y1="0" x2="1" y2="0" gradientUnits="userSpaceOnUse" gradientTransform="matrix(986.667,0,0,986.667,93.3333,550.476)"><stop offset="0" style="stop-color:rgb(120,127,246);stop-opacity:1"/><stop offset="1" style="stop-color:rgb(105,196,255);stop-opacity:1"/></linearGradient>
    </defs>
</svg>
