<?xml version="1.0" encoding="UTF-8" standalone="no"?>
<!DOCTYPE svg PUBLIC "-//W3C//DTD SVG 1.1//EN" "http://www.w3.org/Graphics/SVG/1.1/DTD/svg11.dtd">
<svg width="100%" height="100%" viewBox="0 0 987 987" version="1.1" xmlns="http://www.w3.org/2000/svg" xmlns:xlink="http://www.w3.org/1999/xlink" xml:space="preserve" xmlns:serif="http://www.serif.com/" style="fill-rule:evenodd;clip-rule:evenodd;stroke-linecap:round;stroke-linejoin:round;stroke-miterlimit:10;">
    <g transform="matrix(1,0,0,1,-46.6667,-46.6667)">
        <g>
            <g transform="matrix(1,0,0,1,-46.6667,-10.4762)">
                <path d="M1080,192.988L1080,907.964C1080,982.939 1019.13,1043.81 944.155,1043.81L229.179,1043.81C154.204,1043.81 93.333,982.939 93.333,907.964L93.333,192.988C93.333,118.013 154.204,57.143 229.179,57.143L944.155,57.143C1019.13,57.143 1080,118.013 1080,192.988Z" style="fill:url(#_Linear1);"/>
            </g>
            <g id="Ebene1">
                <g id="fingerprint_24dp_E8EAED_FILL0_wght400_GRAD0_opsz24.svg" transform="matrix(22.7431,0.278925,-0.285396,23.2708,540,504.899)">
                    <g transform="matrix(1,0,0,1,-12,-12)">
                        <path d="M12.025,6.825C14.275,6.825 16.208,7.575 17.825,9.075C19.442,10.575 20.25,12.433 20.25,14.65C20.25,15.483 19.954,16.179 19.363,16.738C18.771,17.296 18.05,17.575 17.2,17.575C16.35,17.575 15.621,17.296 15.013,16.738C14.404,16.179 14.1,15.483 14.1,14.65C14.1,14.1 13.896,13.637 13.488,13.262C13.079,12.887 12.592,12.7 12.025,12.7C11.458,12.7 10.971,12.887 10.563,13.262C10.154,13.637 9.95,14.1 9.95,14.65C9.95,16.267 10.429,17.617 11.388,18.7C12.346,19.783 13.583,20.542 15.1,20.975C15.25,21.025 15.35,21.108 15.4,21.225C15.45,21.342 15.458,21.467 15.425,21.6C15.392,21.717 15.325,21.817 15.225,21.9C15.125,21.983 15,22.008 14.85,21.975C13.117,21.542 11.7,20.679 10.6,19.388C9.5,18.096 8.95,16.517 8.95,14.65C8.95,13.817 9.25,13.117 9.85,12.55C10.45,11.983 11.175,11.7 12.025,11.7C12.875,11.7 13.6,11.983 14.2,12.55C14.8,13.117 15.1,13.817 15.1,14.65C15.1,15.2 15.308,15.663 15.725,16.038C16.142,16.413 16.633,16.6 17.2,16.6C17.767,16.6 18.25,16.413 18.65,16.038C19.05,15.663 19.25,15.2 19.25,14.65C19.25,12.717 18.542,11.092 17.125,9.775C15.708,8.458 14.017,7.8 12.05,7.8C10.083,7.8 8.392,8.458 6.975,9.775C5.558,11.092 4.85,12.708 4.85,14.625C4.85,15.025 4.888,15.525 4.963,16.125C5.038,16.725 5.217,17.425 5.5,18.225C5.55,18.375 5.546,18.508 5.488,18.625C5.429,18.742 5.333,18.825 5.2,18.875C5.067,18.925 4.938,18.921 4.813,18.863C4.688,18.804 4.6,18.708 4.55,18.575C4.3,17.925 4.121,17.279 4.013,16.638C3.904,15.996 3.85,15.333 3.85,14.65C3.85,12.433 4.654,10.575 6.263,9.075C7.871,7.575 9.792,6.825 12.025,6.825ZM12.025,9.25C13.575,9.25 14.908,9.771 16.025,10.813C17.142,11.854 17.7,13.133 17.7,14.65C17.7,14.8 17.654,14.921 17.563,15.012C17.471,15.104 17.35,15.15 17.2,15.15C17.067,15.15 16.95,15.104 16.85,15.012C16.75,14.921 16.7,14.8 16.7,14.65C16.7,13.4 16.238,12.354 15.313,11.512C14.388,10.671 13.292,10.25 12.025,10.25C10.758,10.25 9.671,10.671 8.763,11.512C7.854,12.354 7.4,13.4 7.4,14.65C7.4,16 7.633,17.146 8.1,18.088C8.567,19.029 9.25,19.975 10.15,20.925C10.25,21.025 10.3,21.142 10.3,21.275C10.3,21.408 10.25,21.525 10.15,21.625C10.05,21.725 9.933,21.775 9.8,21.775C9.667,21.775 9.55,21.725 9.45,21.625C8.467,20.592 7.713,19.538 7.188,18.463C6.663,17.388 6.4,16.117 6.4,14.65C6.4,13.133 6.95,11.854 8.05,10.813C9.15,9.771 10.475,9.25 12.025,9.25ZM12,14.15C12.15,14.15 12.271,14.2 12.363,14.3C12.454,14.4 12.5,14.517 12.5,14.65C12.5,15.9 12.95,16.925 13.85,17.725C14.75,18.525 15.8,18.925 17,18.925C17.1,18.925 17.242,18.917 17.425,18.9C17.608,18.883 17.8,18.858 18,18.825C18.15,18.792 18.279,18.813 18.388,18.888C18.496,18.963 18.567,19.075 18.6,19.225C18.633,19.358 18.608,19.475 18.525,19.575C18.442,19.675 18.333,19.742 18.2,19.775C17.9,19.858 17.638,19.904 17.413,19.913C17.188,19.921 17.05,19.925 17,19.925C15.517,19.925 14.229,19.425 13.138,18.425C12.046,17.425 11.5,16.167 11.5,14.65C11.5,14.517 11.546,14.4 11.638,14.3C11.729,14.2 11.85,14.15 12,14.15Z" style="fill:white;fill-rule:nonzero;"/>
                    </g>
                </g>
                <g id="shield_24dp_E8EAED_FILL0_wght400_GRAD0_opsz24.svg" transform="matrix(36,0,0,32.7917,540,589.803)">
                    <g transform="matrix(1,0,0,1,-12,-12)">
                        <path d="M12,22C9.683,21.417 7.771,20.087 6.263,18.013C4.754,15.938 4,13.633 4,11.1L4,5L12,2L20,5L20,11.1C20,13.633 19.246,15.938 17.738,18.013C16.229,20.087 14.317,21.417 12,22ZM12,19.9C13.733,19.35 15.167,18.25 16.3,16.6C17.433,14.95 18,13.117 18,11.1L18,6.375L12,4.125L6,6.375L6,11.1C6,13.117 6.567,14.95 7.7,16.6C8.833,18.25 10.267,19.35 12,19.9Z" style="fill:white;fill-rule:nonzero;"/>
                    </g>
                </g>
            </g>
            <g transform="matrix(0.84557,0,0,1,78.6814,-11.726)">
                <g id="Ebene2">
                    <path d="M348.071,365.331L348.071,283.996C348.071,242.069 388.328,208.029 437.913,208.029L653.23,208.029C702.815,208.029 743.071,242.069 743.071,283.996L743.071,366.288L545.571,306.755L348.071,365.331Z" style="fill:none;stroke:white;stroke-width:55.45px;"/>
                </g>
            </g>
        </g>
    </g>
    <defs>
        <linearGradient id="_Linear1" x1="0" y1="0" x2="1" y2="0" gradientUnits="userSpaceOnUse" gradientTransform="matrix(986.667,0,0,986.667,93.3333,550.476)"><stop offset="0" style="stop-color:rgb(120,127,246);stop-opacity:1"/><stop offset="1" style="stop-color:rgb(105,196,255);stop-opacity:1"/></linearGradient>
    </defs>
</svg>
